<svg width="25" height="24" viewBox="0 0 25 24" fill="none" xmlns="http://www.w3.org/2000/svg">
  <path d="M15.541 16.7194C15.7199 16.5417 15.8203 16.3012 15.8203 16.0506C15.8203 15.8 15.7199 15.5596 15.541 15.3818L12.1407 11.9763L15.541 8.61816C15.7199 8.44042 15.8203 8.19999 15.8203 7.94938C15.8203 7.69877 15.7199 7.45834 15.541 7.2806C15.4517 7.19169 15.3455 7.12112 15.2284 7.07296C15.1114 7.0248 14.9858 7 14.859 7C14.7322 7 14.6067 7.0248 14.4896 7.07296C14.3726 7.12112 14.2663 7.19169 14.1771 7.2806L10.1044 11.3028C10.0144 11.3909 9.94295 11.4959 9.89418 11.6115C9.84542 11.7271 9.82031 11.8511 9.82031 11.9763C9.82031 12.1015 9.84542 12.2255 9.89418 12.3411C9.94295 12.4567 10.0144 12.5616 10.1044 12.6498L14.1771 16.7194C14.2663 16.8083 14.3726 16.8789 14.4896 16.927C14.6067 16.9752 14.7322 17 14.859 17C14.9858 17 15.1114 16.9752 15.2284 16.927C15.3455 16.8789 15.4517 16.8083 15.541 16.7194Z" fill="#84878B" />
</svg>