<svg width="25" height="24" viewBox="0 0 25 24" fill="none" xmlns="http://www.w3.org/2000/svg">
  <path d="M9.28127 7.2806C9.10237 7.45834 9.00195 7.69877 9.00195 7.94938C9.00195 8.19999 9.10237 8.44042 9.28127 8.61816L12.6815 12.0237L9.28127 15.3818C9.10237 15.5596 9.00195 15.8 9.00195 16.0506C9.00195 16.3012 9.10237 16.5417 9.28127 16.7194C9.37056 16.8083 9.47679 16.8789 9.59384 16.927C9.71089 16.9752 9.83644 17 9.96324 17C10.09 17 10.2156 16.9752 10.3326 16.927C10.4497 16.8789 10.5559 16.8083 10.6452 16.7194L14.7178 12.6972C14.8079 12.6091 14.8793 12.5041 14.9281 12.3885C14.9768 12.2729 15.002 12.1489 15.002 12.0237C15.002 11.8985 14.9768 11.7745 14.9281 11.6589C14.8793 11.5433 14.8079 11.4384 14.7178 11.3502L10.6452 7.2806C10.5559 7.19169 10.4497 7.12112 10.3326 7.07296C10.2156 7.0248 10.09 7 9.96324 7C9.83644 7 9.71089 7.0248 9.59384 7.07296C9.47679 7.12112 9.37056 7.19169 9.28127 7.2806Z" fill="#84878B" />
</svg>