<svg width="18" height="18" viewBox="0 0 18 18" fill="none" xmlns="http://www.w3.org/2000/svg">
  <path d="M10.666 5.66602H11.4993C11.7204 5.66602 11.9323 5.57822 12.0886 5.42194C12.2449 5.26566 12.3327 5.0537 12.3327 4.83268C12.3327 4.61167 12.2449 4.39971 12.0886 4.24343C11.9323 4.08715 11.7204 3.99935 11.4993 3.99935H10.666C10.445 3.99935 10.233 4.08715 10.0768 4.24343C9.92048 4.39971 9.83268 4.61167 9.83268 4.83268C9.83268 5.0537 9.92048 5.26566 10.0768 5.42194C10.233 5.57822 10.445 5.66602 10.666 5.66602ZM10.666 8.99935H11.4993C11.7204 8.99935 11.9323 8.91155 12.0886 8.75527C12.2449 8.59899 12.3327 8.38703 12.3327 8.16602C12.3327 7.945 12.2449 7.73304 12.0886 7.57676C11.9323 7.42048 11.7204 7.33268 11.4993 7.33268H10.666C10.445 7.33268 10.233 7.42048 10.0768 7.57676C9.92048 7.73304 9.83268 7.945 9.83268 8.16602C9.83268 8.38703 9.92048 8.59899 10.0768 8.75527C10.233 8.91155 10.445 8.99935 10.666 8.99935ZM6.49935 5.66602H7.33268C7.5537 5.66602 7.76566 5.57822 7.92194 5.42194C8.07822 5.26566 8.16602 5.0537 8.16602 4.83268C8.16602 4.61167 8.07822 4.39971 7.92194 4.24343C7.76566 4.08715 7.5537 3.99935 7.33268 3.99935H6.49935C6.27834 3.99935 6.06637 4.08715 5.91009 4.24343C5.75381 4.39971 5.66602 4.61167 5.66602 4.83268C5.66602 5.0537 5.75381 5.26566 5.91009 5.42194C6.06637 5.57822 6.27834 5.66602 6.49935 5.66602ZM6.49935 8.99935H7.33268C7.5537 8.99935 7.76566 8.91155 7.92194 8.75527C8.07822 8.59899 8.16602 8.38703 8.16602 8.16602C8.16602 7.945 8.07822 7.73304 7.92194 7.57676C7.76566 7.42048 7.5537 7.33268 7.33268 7.33268H6.49935C6.27834 7.33268 6.06637 7.42048 5.91009 7.57676C5.75381 7.73304 5.66602 7.945 5.66602 8.16602C5.66602 8.38703 5.75381 8.59899 5.91009 8.75527C6.06637 8.91155 6.27834 8.99935 6.49935 8.99935ZM16.4993 15.666H15.666V1.49935C15.666 1.27834 15.5782 1.06637 15.4219 0.910093C15.2657 0.753813 15.0537 0.666016 14.8327 0.666016H3.16602C2.945 0.666016 2.73304 0.753813 2.57676 0.910093C2.42048 1.06637 2.33268 1.27834 2.33268 1.49935V15.666H1.49935C1.27834 15.666 1.06637 15.7538 0.910093 15.9101C0.753813 16.0664 0.666016 16.2783 0.666016 16.4993C0.666016 16.7204 0.753813 16.9323 0.910093 17.0886C1.06637 17.2449 1.27834 17.3327 1.49935 17.3327H16.4993C16.7204 17.3327 16.9323 17.2449 17.0886 17.0886C17.2449 16.9323 17.3327 16.7204 17.3327 16.4993C17.3327 16.2783 17.2449 16.0664 17.0886 15.9101C16.9323 15.7538 16.7204 15.666 16.4993 15.666ZM9.83268 15.666H8.16602V12.3327H9.83268V15.666ZM13.9993 15.666H11.4993V11.4993C11.4993 11.2783 11.4116 11.0664 11.2553 10.9101C11.099 10.7538 10.887 10.666 10.666 10.666H7.33268C7.11167 10.666 6.89971 10.7538 6.74343 10.9101C6.58715 11.0664 6.49935 11.2783 6.49935 11.4993V15.666H3.99935V2.33268H13.9993V15.666Z" fill="#B1B5C4" />
</svg>