<svg width="16" height="20" viewBox="0 0 16 20" fill="none" xmlns="http://www.w3.org/2000/svg">
  <path d="M8.00065 0.833984C6.02534 0.833984 4.13093 1.6066 2.73418 2.98186C1.33742 4.35712 0.552734 6.22238 0.552734 8.16729C0.552734 13.1173 7.11621 18.7089 7.39551 18.9473C7.56414 19.0893 7.77875 19.1673 8.00065 19.1673C8.22256 19.1673 8.43716 19.0893 8.60579 18.9473C8.93164 18.7089 15.4486 13.1173 15.4486 8.16729C15.4486 6.22238 14.6639 4.35712 13.2671 2.98186C11.8704 1.6066 9.97596 0.833984 8.00065 0.833984ZM8.00065 17.0131C6.01764 15.1798 2.41471 11.229 2.41471 8.16729C2.41471 6.70861 3.00323 5.30967 4.0508 4.27822C5.09836 3.24677 6.51917 2.66731 8.00065 2.66731C9.48213 2.66731 10.9029 3.24677 11.9505 4.27822C12.9981 5.30967 13.5866 6.70861 13.5866 8.16729C13.5866 11.229 9.98366 15.1889 8.00065 17.0131ZM8.00065 4.50064C7.26412 4.50064 6.54413 4.71568 5.93173 5.11858C5.31933 5.52148 4.84202 6.09413 4.56016 6.76413C4.2783 7.43412 4.20456 8.17136 4.34825 8.88262C4.49194 9.59388 4.84661 10.2472 5.36741 10.76C5.88822 11.2728 6.55177 11.622 7.27414 11.7635C7.99652 11.905 8.74529 11.8324 9.42575 11.5548C10.1062 11.2773 10.6878 10.8074 11.097 10.2044C11.5062 9.6014 11.7246 8.89249 11.7246 8.16729C11.7246 7.19484 11.3323 6.26221 10.6339 5.57458C9.93551 4.88695 8.98831 4.50064 8.00065 4.50064ZM8.00065 10.0006C7.63239 10.0006 7.27239 9.8931 6.96619 9.69165C6.65999 9.4902 6.42134 9.20387 6.28041 8.86888C6.13948 8.53388 6.1026 8.16526 6.17445 7.80963C6.24629 7.454 6.42363 7.12733 6.68403 6.87094C6.94444 6.61454 7.27621 6.43993 7.6374 6.36919C7.99859 6.29845 8.37297 6.33476 8.7132 6.47352C9.05343 6.61228 9.34423 6.84726 9.54883 7.14875C9.75343 7.45024 9.86263 7.8047 9.86263 8.16729C9.86263 8.65352 9.66646 9.11984 9.31727 9.46365C8.96808 9.80747 8.49448 10.0006 8.00065 10.0006Z" fill="#B1B5C4" />
</svg>