<svg width="18" height="21" viewBox="0 0 18 21" fill="none" xmlns="http://www.w3.org/2000/svg">
<path d="M9 0.5C6.84512 0.5 4.77849 1.34285 3.25476 2.84314C1.73102 4.34342 0.875 6.37825 0.875 8.49997C0.875 13.9 8.03516 19.9999 8.33984 20.2599C8.52381 20.4149 8.75792 20.5 9 20.5C9.24208 20.5 9.47619 20.4149 9.66016 20.2599C10.0156 19.9999 17.125 13.9 17.125 8.49997C17.125 6.37825 16.269 4.34342 14.7452 2.84314C13.2215 1.34285 11.1549 0.5 9 0.5ZM9 18.1499C6.83672 16.1499 2.90625 11.84 2.90625 8.49997C2.90625 6.90868 3.54827 5.38256 4.69107 4.25735C5.83387 3.13213 7.38384 2.49999 9 2.49999C10.6162 2.49999 12.1661 3.13213 13.3089 4.25735C14.4517 5.38256 15.0938 6.90868 15.0938 8.49997C15.0938 11.84 11.1633 16.1599 9 18.1499ZM9 4.49999C8.19651 4.49999 7.41107 4.73458 6.743 5.17411C6.07492 5.61363 5.55422 6.23834 5.24674 6.96924C4.93926 7.70015 4.85881 8.50441 5.01556 9.28033C5.17231 10.0563 5.55923 10.769 6.12738 11.3284C6.69553 11.8878 7.4194 12.2688 8.20745 12.4231C8.99549 12.5774 9.81233 12.4982 10.5547 12.1955C11.297 11.8927 11.9315 11.38 12.3778 10.7222C12.8242 10.0645 13.0625 9.2911 13.0625 8.49997C13.0625 7.43911 12.6345 6.4217 11.8726 5.67156C11.1108 4.92141 10.0774 4.49999 9 4.49999ZM9 10.5C8.59826 10.5 8.20554 10.3827 7.8715 10.1629C7.53746 9.94315 7.27711 9.63079 7.12337 9.26534C6.96963 8.89989 6.9294 8.49776 7.00778 8.1098C7.08616 7.72183 7.27961 7.36547 7.56369 7.08577C7.84776 6.80606 8.2097 6.61558 8.60372 6.53841C8.99775 6.46124 9.40616 6.50085 9.77733 6.65222C10.1485 6.8036 10.4657 7.05994 10.6889 7.38884C10.9121 7.71773 11.0312 8.10441 11.0312 8.49997C11.0312 9.03041 10.8172 9.53911 10.4363 9.91418C10.0554 10.2893 9.53872 10.5 9 10.5Z" fill="#84878B"/>
</svg>
