<svg width="24" height="21" viewBox="0 0 24 21" fill="none" xmlns="http://www.w3.org/2000/svg">
<path d="M22.1013 12.6633C22.5331 12.2327 22.8273 11.6836 22.9467 11.0856C23.0662 10.4877 23.0054 9.86771 22.7722 9.3043C22.5389 8.74089 22.1437 8.25939 21.6366 7.9208C21.1294 7.58222 20.5332 7.4018 19.9234 7.40239L15.9494 7.40239L12.8877 1.28592C12.8039 1.12533 12.6781 0.990518 12.5236 0.895868C12.3692 0.801219 12.192 0.750289 12.0109 0.748517L8.65918 0.734375C8.49877 0.7353 8.34094 0.774799 8.19901 0.849538C8.05708 0.924278 7.93521 1.03206 7.84369 1.1638C7.75216 1.29554 7.69368 1.44736 7.67316 1.60645C7.65264 1.76554 7.67069 1.92723 7.7258 2.07788L9.72691 7.40239L6.04995 7.40239L5.44891 5.58513C5.38902 5.38392 5.26732 5.20667 5.10106 5.07848C4.93481 4.9503 4.73243 4.87769 4.5226 4.87095L1.99116 4.89923C1.72698 4.90002 1.47384 5.00532 1.28703 5.19212C1.10022 5.37893 0.994927 5.63207 0.994141 5.89625L0.994141 15.0745C0.994927 15.3387 1.10022 15.5918 1.28703 15.7786C1.47384 15.9654 1.72698 16.0707 1.99116 16.0715L4.5226 16.0998C4.73376 16.1009 4.93984 16.0351 5.11132 15.9119C5.2828 15.7887 5.41087 15.6144 5.4772 15.4139L6.07824 13.5966L9.75519 13.5966L7.75408 18.9212C7.69898 19.0718 7.68092 19.2335 7.70144 19.3926C7.72196 19.5517 7.78045 19.7035 7.87197 19.8352C7.96349 19.967 8.08536 20.0748 8.22729 20.1495C8.36923 20.2242 8.52706 20.2637 8.68746 20.2647H12.025C12.2061 20.2629 12.3834 20.212 12.5378 20.1173C12.6922 20.0227 12.818 19.8878 12.9018 19.7273L15.9636 13.6108L19.9234 13.5684C20.3283 13.5696 20.7294 13.4902 21.1034 13.3348C21.4773 13.1794 21.8165 12.9511 22.1013 12.6633ZM19.9163 11.5673L15.3343 11.5673C15.1531 11.569 14.9759 11.62 14.8215 11.7146C14.6671 11.8093 14.5412 11.9441 14.4575 12.1047L11.4028 18.2141L10.13 18.2141L12.124 12.8966C12.1807 12.7456 12.2 12.5832 12.1803 12.4231C12.1606 12.263 12.1024 12.1101 12.0109 11.9774C11.9184 11.8436 11.7948 11.7345 11.6506 11.6593C11.5064 11.5841 11.3461 11.5453 11.1835 11.546L5.3287 11.5743C5.11963 11.5742 4.91578 11.6396 4.74582 11.7614C4.57586 11.8832 4.44833 12.0551 4.38118 12.2531L3.77307 14.0209L2.98111 14.0209L2.98818 6.90035L3.77307 6.94984L4.37411 8.76711C4.44126 8.96511 4.56878 9.13708 4.73874 9.25884C4.90871 9.38061 5.11256 9.44604 5.32163 9.44593L11.1906 9.43179C11.3525 9.43242 11.5121 9.39376 11.6557 9.31911C11.7993 9.24446 11.9227 9.13607 12.0152 9.00324C12.1077 8.87041 12.1665 8.7171 12.1867 8.5565C12.2069 8.3959 12.1878 8.23281 12.1311 8.08121L10.1087 2.73549L11.3815 2.73549L14.4362 8.84489C14.52 9.00548 14.6458 9.14029 14.8003 9.23494C14.9547 9.32959 15.1319 9.38052 15.3131 9.38229L19.8951 9.38229C20.0376 9.3807 20.179 9.4076 20.311 9.4614C20.443 9.51521 20.5629 9.59484 20.6637 9.69562C20.7644 9.7964 20.8441 9.9163 20.8979 10.0483C20.9517 10.1803 20.9786 10.3216 20.977 10.4642C20.9824 10.6063 20.9574 10.7479 20.9038 10.8796C20.8501 11.0113 20.769 11.13 20.6659 11.2278C20.5698 11.3315 20.4541 11.415 20.3254 11.4732C20.1966 11.5315 20.0576 11.5635 19.9163 11.5673Z" fill="#84878B"/>
</svg>
