<?xml version="1.0" encoding="iso-8859-1"?>
<!-- Generator: Adobe Illustrator 19.0.0, SVG Export Plug-In . SVG Version: 6.00 Build 0)  -->
<svg version="1.1" id="Layer_1" fill="#84878B" xmlns="http://www.w3.org/2000/svg" xmlns:xlink="http://www.w3.org/1999/xlink" x="0px" y="0px"
	 viewBox="0 0 512 512" style="enable-background:new 0 0 512 512;" xml:space="preserve">
<g>
	<g>
		<path d="M493.285,319.683h-35.201c-7.738-83.7-66.837-154.553-147.96-176.926v-7.991c0-29.908-24.214-54.125-54.125-54.125
			c-29.845,0-54.125,24.28-54.125,54.125v7.991c-81.121,22.371-140.222,93.225-147.96,176.926h-35.2
			C8.379,319.683,0,328.062,0,338.397v74.248c0,10.335,8.379,18.715,18.715,18.715h474.571c10.335,0,18.715-8.379,18.715-18.715
			v-74.248C512,328.062,503.621,319.683,493.285,319.683z M239.305,134.765c0-22.046,33.392-22.096,33.392,0v1.362
			c-10.842-0.883-21.986-0.93-33.392,0V134.765z M224.163,175.93c20.333-3.955,42.366-4.145,63.67-0.001
			c71.28,13.879,124.576,72.833,132.633,143.754H91.534C99.592,248.762,152.886,189.808,224.163,175.93z M474.571,393.931H37.429
			v-36.819c14.202,0,420.351,0,437.142,0V393.931z"/>
	</g>
</g>
<g>
</g>
<g>
</g>
<g>
</g>
<g>
</g>
<g>
</g>
<g>
</g>
<g>
</g>
<g>
</g>
<g>
</g>
<g>
</g>
<g>
</g>
<g>
</g>
<g>
</g>
<g>
</g>
<g>
</g>
</svg>
