<svg width="13" height="14" viewBox="0 0 13 14" fill="none" xmlns="http://www.w3.org/2000/svg">
<path fill-rule="evenodd" clip-rule="evenodd" d="M0 2.79984V2.80002V7V11.1999C0 12.9336 2.93379 13.9999 6.5 13.9999C10.0662 13.9999 13 12.9336 13 11.1999V7V2.80002V2.79984C12.9998 1.06625 10.0661 0 6.5 0C2.93391 0 0.000197956 1.06625 0 2.79984ZM11.5556 7V4.6346C10.36 5.2536 8.53271 5.60004 6.5 5.60004C4.46728 5.60004 2.64004 5.2536 1.44444 4.6346V7C1.44444 7.58592 3.68426 8.40001 6.5 8.40001C9.31574 8.40001 11.5556 7.58592 11.5556 7ZM1.44444 8.83458C2.64004 9.45358 4.46728 9.80002 6.5 9.80002C8.53271 9.80002 10.36 9.45358 11.5556 8.83458V11.1999C11.5556 11.7858 9.31574 12.5999 6.5 12.5999C3.68426 12.5999 1.44444 11.7858 1.44444 11.1999V8.83458ZM6.49891 4.19846C3.71901 4.19846 1.50047 3.40496 1.44444 2.82093V2.79984H1.44336L1.44336 2.79845C1.44336 2.21253 3.68317 1.39844 6.49891 1.39844C9.31466 1.39844 11.5545 2.21253 11.5545 2.79845C11.5545 3.38436 9.31466 4.19846 6.49891 4.19846Z" fill="#84878B"/>
</svg>
