<svg width="14" height="14" viewBox="0 0 14 14" fill="none" xmlns="http://www.w3.org/2000/svg">
<path fill-rule="evenodd" clip-rule="evenodd" d="M9.41573 0.0551279C10.1592 -0.160815 10.9341 0.276826 11.1465 1.03263C11.1823 1.15978 11.2004 1.29138 11.2004 1.42363V2.61396H12.6005C13.3737 2.61396 14.0005 3.25117 14.0005 4.03722V12.5768C14.0005 13.3628 13.3737 14.0001 12.6005 14.0001H1.40005C0.626824 14.0001 0 13.3628 0 12.5768H0.0185096C0.00620478 12.5006 0 12.4235 0 12.3461V3.86351C0 3.22805 0.414383 2.66958 1.01543 2.495L9.41573 0.0551279ZM5.70214 12.5768H12.6005V6.88334H11.2004V5.46007H12.6005V4.03722H11.2004V9.90625C11.2004 10.5417 10.786 11.1002 10.185 11.2747L5.70214 12.5768ZM1.40039 3.86566V12.3483L9.80069 9.9084V1.42578L1.40039 3.86566ZM8.40005 5.46077C8.40005 5.85379 8.08664 6.1724 7.70003 6.1724C7.31341 6.1724 7 5.85379 7 5.46077C7 5.06774 7.31341 4.74914 7.70003 4.74914C8.08664 4.74914 8.40005 5.06774 8.40005 5.46077Z" fill="#84878B"/>
</svg>
