<svg width="14" height="14" viewBox="0 0 14 14" fill="none" xmlns="http://www.w3.org/2000/svg">
<path fill-rule="evenodd" clip-rule="evenodd" d="M6.99935 0L7.02105 0.000135395C10.8774 0.0114604 14 3.14109 14 7.00005C14 10.866 10.866 14 7.00005 14C3.14135 14 0.0118815 10.8778 0.000137723 7.02183L0 6.99994L0.000138608 6.97798C0.0120141 3.12978 3.1291 0.0124403 6.9772 0.000141082L6.99935 0ZM1.68176 4.87086C2.26297 3.42099 3.41991 2.26402 4.86975 1.68276C4.52968 2.33964 4.2629 3.15844 4.08306 4.0838C3.15754 4.26373 2.33864 4.53064 1.68176 4.87086ZM1.27344 6.99999C1.27344 6.42791 2.30927 5.80717 3.89037 5.43371C3.84239 5.938 3.81756 6.46236 3.81756 6.99995C3.81756 7.53757 3.84239 8.06195 3.89038 8.56626C2.30928 8.19281 1.27344 7.57207 1.27344 6.99999ZM10.1811 6.99995C10.1811 7.53779 10.1563 8.0624 10.1083 8.5669C11.6909 8.19351 12.7279 7.5724 12.7279 6.99999C12.7279 6.42758 11.6909 5.80646 10.1083 5.43308C10.1563 5.93756 10.1811 6.46213 10.1811 6.99995ZM1.68092 9.12859C2.33794 9.46902 3.15714 9.73608 4.08306 9.91609C4.26309 10.8424 4.53025 11.662 4.87083 12.3192C3.41978 11.7378 2.262 10.5798 1.68092 9.12859ZM9.9156 9.91633C9.73552 10.8428 9.46828 11.6625 9.1276 12.3197C10.5792 11.7385 11.7375 10.5803 12.3187 9.12871C11.6615 9.46924 10.8419 9.73634 9.9156 9.91633ZM9.12868 1.68225C9.46885 2.33916 9.7357 3.15806 9.91559 4.08355C10.8415 4.26347 11.6608 4.53042 12.3179 4.87074C11.7365 3.4205 10.5791 2.26332 9.12868 1.68225ZM5.09105 7.00091C5.09105 5.79737 5.23522 4.68719 5.46281 3.77109C5.95077 3.71974 6.46584 3.69142 6.99925 3.69142C7.53332 3.69142 8.049 3.71981 8.53749 3.77127C8.76505 4.68735 8.9092 5.79745 8.9092 7.00091C8.9092 7.13019 8.90754 7.2584 8.90429 7.3854C8.30975 7.46421 7.66896 7.50885 6.99925 7.50885C6.33021 7.50885 5.69001 7.4643 5.09597 7.38563C5.09272 7.25855 5.09105 7.13027 5.09105 7.00091ZM7.00013 12.7281C6.26969 12.7281 5.45993 11.0395 5.18685 8.68331C5.76587 8.74793 6.3736 8.78157 6.99925 8.78157C7.62554 8.78157 8.23387 8.74786 8.81342 8.68312C8.54037 11.0394 7.73058 12.7281 7.00013 12.7281ZM5.90326 2.4539C6.23515 1.71212 6.62794 1.27368 7.00013 1.27368C7.37234 1.27368 7.76515 1.71216 8.09704 2.45402C7.73901 2.43066 7.37232 2.4187 6.99925 2.4187C6.62681 2.4187 6.26072 2.43062 5.90326 2.4539Z" fill="#84878B"/>
</svg>
