<svg width="26" height="24" viewBox="0 0 26 24" fill="none" xmlns="http://www.w3.org/2000/svg">
<path d="M13.9798 0.348827C13.1395 -0.114471 12.1226 -0.116379 11.2806 0.343764L1.47193 5.70413C0.564868 6.19983 0.000123406 7.15481 0.000109499 8.19298L2.57893e-10 16.367C-1.45227e-05 17.4512 0.615319 18.4403 1.58482 18.9144L2.97194 19.5928C3.31266 18.7719 3.72522 17.9728 4.22263 17.2366C6.98742 13.1448 8.93359 11.8222 10.7453 10.6112C10.8808 10.5207 10.8855 10.3226 10.7547 10.2253L6.55564 7.10372C6.48861 7.05388 6.49316 6.95162 6.56436 6.90801L7.83757 6.12819C7.90237 6.0885 7.98225 6.08276 8.05201 6.11277L10.8091 7.29912C10.8802 7.32973 10.9617 7.32312 11.0271 7.28146L11.9972 6.66294C12.0524 6.62771 12.1256 6.64471 12.16 6.70072L12.7371 7.643C12.7646 7.68797 12.7591 7.74587 12.7236 7.78476L12.6229 7.89491C12.5677 7.95532 12.5891 8.05253 12.6645 8.08386L13.9495 8.61771C13.9901 8.63454 14.0364 8.62713 14.0707 8.59967C14.6331 8.14963 16.0464 7.38538 17.7758 7.46852C17.9155 7.47524 18.0116 7.6078 17.9627 7.73955C17.7092 8.42201 16.9035 9.62403 15.1022 10.4855C15.0651 10.5032 15.0391 10.5391 15.0346 10.5801L14.8897 11.9034C14.8821 11.9732 14.9365 12.0343 15.0064 12.0343H15.1735C15.2167 12.0343 15.2565 12.0582 15.2769 12.0966L15.777 13.0361C15.8062 13.0909 15.788 13.1592 15.7354 13.192L14.6856 13.8474C14.6555 13.8661 14.6354 13.8975 14.631 13.9329L14.2454 17.0053C14.2405 17.0441 14.2169 17.078 14.1822 17.0957L12.7627 17.8229C12.6879 17.8612 12.5985 17.8105 12.5924 17.7263L12.2064 12.3697C12.2006 12.2888 12.1179 12.2377 12.045 12.2725C10.6477 12.9398 8.03418 15.0406 7.67053 18.7168C7.55247 19.9103 7.6241 20.9978 7.8362 21.9719L11.3996 23.7147C12.1774 24.0951 13.0858 24.0951 13.8635 23.7147L23.6783 18.9144C24.6478 18.4403 25.2632 17.4512 25.2632 16.3671V8.24746C25.2632 7.21307 24.7025 6.26092 23.8006 5.76363L13.9798 0.348827Z" fill="#316BFF"/>
</svg>
