<svg width="16" height="16" viewBox="0 0 16 16" fill="none" xmlns="http://www.w3.org/2000/svg">
<path d="M15.6857 8.80395C15.5703 8.70581 15.4305 8.64298 15.2821 8.62261C15.1337 8.60225 14.9827 8.62518 14.8464 8.68879C14.001 9.08683 13.082 9.29169 12.1523 9.28928C10.4327 9.28714 8.78359 8.58551 7.56462 7.33737C6.34565 6.08923 5.65567 4.39581 5.64512 2.62634C5.64876 2.07178 5.71584 1.51959 5.84497 0.98117C5.87237 0.83766 5.86209 0.689229 5.8152 0.551167C5.7683 0.413105 5.68648 0.290405 5.57816 0.195709C5.46984 0.101013 5.33895 0.037745 5.19896 0.0124232C5.05898 -0.0128987 4.91496 0.000641388 4.78175 0.0516484C3.52853 0.631496 2.43913 1.52964 1.61588 2.6617C0.792639 3.79376 0.262575 5.12258 0.0754883 6.52332C-0.111599 7.92407 0.050432 9.35077 0.546359 10.6694C1.04229 11.988 1.85583 13.1552 2.91057 14.0615C3.9653 14.9677 5.22661 15.5832 6.57599 15.8501C7.92537 16.1169 9.31854 16.0265 10.6246 15.5872C11.9307 15.1479 13.1068 14.3741 14.0425 13.3387C14.9781 12.3032 15.6426 11.04 15.9735 9.66767C16.0138 9.51055 16.008 9.34467 15.9568 9.19095C15.9056 9.03724 15.8113 8.90257 15.6857 8.80395ZM8.09132 14.307C6.74971 14.2973 5.44383 13.8611 4.35246 13.0581C3.2611 12.2552 2.43761 11.1247 1.99475 9.8216C1.55188 8.51844 1.5113 7.10629 1.87856 5.77849C2.24581 4.45069 3.00294 3.27215 4.04629 2.40424V2.62634C4.04841 4.83785 4.90311 6.95815 6.42283 8.52192C7.94255 10.0857 10.0031 10.9652 12.1523 10.9674C12.7166 10.9695 13.2795 10.9088 13.8311 10.7864C13.2794 11.8603 12.4533 12.7588 11.4418 13.385C10.4303 14.0113 9.2718 14.3415 8.09132 14.3399V14.307Z" fill="#84878B"/>
</svg>
