<svg width="17" height="17" viewBox="0 0 17 17" fill="none" xmlns="http://www.w3.org/2000/svg">
<path d="M16.1857 9.30395C16.0703 9.20581 15.9305 9.14298 15.7821 9.12261C15.6337 9.10225 15.4827 9.12518 15.3464 9.18879C14.501 9.58683 13.582 9.79169 12.6523 9.78928C10.9327 9.78714 9.28359 9.08551 8.06462 7.83737C6.84565 6.58923 6.15567 4.89581 6.14512 3.12634C6.14876 2.57178 6.21584 2.01959 6.34497 1.48117C6.37237 1.33766 6.36209 1.18923 6.3152 1.05117C6.2683 0.913105 6.18648 0.790405 6.07816 0.695709C5.96984 0.601013 5.83895 0.537745 5.69896 0.512423C5.55898 0.487101 5.41496 0.500641 5.28175 0.551648C4.02853 1.1315 2.93913 2.02964 2.11588 3.1617C1.29264 4.29376 0.762575 5.62258 0.575488 7.02332C0.388401 8.42407 0.550432 9.85077 1.04636 11.1694C1.54229 12.488 2.35583 13.6552 3.41057 14.5615C4.4653 15.4677 5.72661 16.0832 7.07599 16.3501C8.42537 16.6169 9.81854 16.5265 11.1246 16.0872C12.4307 15.6479 13.6068 14.8741 14.5425 13.8387C15.4781 12.8032 16.1426 11.54 16.4735 10.1677C16.5138 10.0105 16.508 9.84467 16.4568 9.69095C16.4056 9.53724 16.3113 9.40257 16.1857 9.30395ZM8.59132 14.807C7.24971 14.7973 5.94383 14.3611 4.85246 13.5581C3.7611 12.7552 2.93761 11.6247 2.49475 10.3216C2.05188 9.01844 2.0113 7.60629 2.37856 6.27849C2.74581 4.95069 3.50294 3.77215 4.54629 2.90424V3.12634C4.54841 5.33785 5.40311 7.45815 6.92283 9.02192C8.44255 10.5857 10.5031 11.4652 12.6523 11.4674C13.2166 11.4695 13.7795 11.4088 14.3311 11.2864C13.7794 12.3603 12.9533 13.2588 11.9418 13.885C10.9303 14.5113 9.7718 14.8415 8.59132 14.8399V14.807Z" fill="white"/>
</svg>
