<svg width="19" height="20" viewBox="0 0 19 20" fill="none" xmlns="http://www.w3.org/2000/svg">
<ellipse cx="9.19364" cy="10.2102" rx="6.12919" ry="6.12625" fill="#4A4E54"/>
<mask id="path-2-inside-1_4006_1137" fill="white">
<ellipse cx="9.64345" cy="1.02104" rx="0.993061" ry="1.02104"/>
</mask>
<ellipse cx="9.64345" cy="1.02104" rx="0.993061" ry="1.02104" fill="#4A4E54"/>
<path d="M9.63651 1.02104C9.63651 1.02973 9.63495 1.03491 9.63367 1.03804C9.63214 1.04176 9.63019 1.04437 9.62879 1.04581C9.6274 1.04724 9.62777 1.0463 9.63119 1.04481C9.63295 1.04404 9.63517 1.0433 9.6377 1.04276C9.64029 1.04222 9.64235 1.04208 9.64345 1.04208V3.04208C10.7702 3.04208 11.6365 2.11086 11.6365 1.02104H9.63651ZM9.64345 1.04208C9.64455 1.04208 9.64661 1.04222 9.6492 1.04276C9.65173 1.0433 9.65395 1.04404 9.65571 1.04481C9.65913 1.0463 9.6595 1.04724 9.65811 1.04581C9.65671 1.04437 9.65477 1.04176 9.65324 1.03804C9.65195 1.03491 9.65039 1.02973 9.65039 1.02104H7.65039C7.65039 2.11086 8.5167 3.04208 9.64345 3.04208V1.04208ZM9.65039 1.02104C9.65039 1.01236 9.65195 1.00717 9.65324 1.00405C9.65477 1.00032 9.65671 0.997715 9.65811 0.996272C9.6595 0.994842 9.65913 0.995787 9.65571 0.997275C9.65395 0.998039 9.65173 0.998788 9.6492 0.99932C9.64661 0.999865 9.64455 1 9.64345 1V-1C8.5167 -1 7.65039 -0.068773 7.65039 1.02104H9.65039ZM9.64345 1C9.64235 1 9.64029 0.999865 9.6377 0.99932C9.63517 0.998788 9.63295 0.998039 9.63119 0.997275C9.62777 0.995787 9.6274 0.994842 9.62879 0.996272C9.63019 0.997715 9.63214 1.00032 9.63367 1.00405C9.63495 1.00717 9.63651 1.01236 9.63651 1.02104H11.6365C11.6365 -0.068773 10.7702 -1 9.64345 -1V1Z" fill="#4A4E54" mask="url(#path-2-inside-1_4006_1137)"/>
<mask id="path-4-inside-2_4006_1137" fill="white">
<ellipse cx="15.6122" cy="3.84135" rx="0.993061" ry="1.02104"/>
</mask>
<ellipse cx="15.6122" cy="3.84135" rx="0.993061" ry="1.02104" fill="#4A4E54"/>
<path d="M15.6053 3.84135C15.6053 3.85004 15.6037 3.85522 15.6024 3.85835C15.6009 3.86207 15.5989 3.86468 15.5975 3.86612C15.5961 3.86755 15.5965 3.86661 15.5999 3.86512C15.6017 3.86436 15.6039 3.86361 15.6064 3.86308C15.609 3.86253 15.6111 3.8624 15.6122 3.8624V5.8624C16.739 5.8624 17.6053 4.93117 17.6053 3.84135H15.6053ZM15.6122 3.8624C15.6133 3.8624 15.6154 3.86253 15.618 3.86308C15.6205 3.86361 15.6227 3.86436 15.6245 3.86512C15.6279 3.86661 15.6283 3.86755 15.6269 3.86612C15.6255 3.86468 15.6235 3.86207 15.622 3.85835C15.6207 3.85522 15.6191 3.85004 15.6191 3.84135H13.6191C13.6191 4.93117 14.4855 5.8624 15.6122 5.8624V3.8624ZM15.6191 3.84135C15.6191 3.83267 15.6207 3.82749 15.622 3.82436C15.6235 3.82064 15.6255 3.81803 15.6269 3.81658C15.6283 3.81515 15.6279 3.8161 15.6245 3.81759C15.6227 3.81835 15.6205 3.8191 15.618 3.81963C15.6154 3.82018 15.6133 3.82031 15.6122 3.82031V1.82031C14.4855 1.82031 13.6191 2.75154 13.6191 3.84135H15.6191ZM15.6122 3.82031C15.6111 3.82031 15.609 3.82018 15.6064 3.81963C15.6039 3.8191 15.6017 3.81835 15.5999 3.81759C15.5965 3.8161 15.5961 3.81515 15.5975 3.81658C15.5989 3.81803 15.6009 3.82064 15.6024 3.82436C15.6037 3.82749 15.6053 3.83267 15.6053 3.84135H17.6053C17.6053 2.75154 16.739 1.82031 15.6122 1.82031V3.82031Z" fill="#4A4E54" mask="url(#path-4-inside-2_4006_1137)"/>
<mask id="path-6-inside-3_4006_1137" fill="white">
<ellipse cx="18.0067" cy="10.1851" rx="0.993061" ry="1.02104"/>
</mask>
<ellipse cx="18.0067" cy="10.1851" rx="0.993061" ry="1.02104" fill="#4A4E54"/>
<path d="M17.9998 10.1851C17.9998 10.1938 17.9982 10.199 17.9969 10.2021C17.9954 10.2058 17.9935 10.2084 17.9921 10.2099C17.9907 10.2113 17.9911 10.2104 17.9945 10.2089C17.9962 10.2081 17.9985 10.2074 18.001 10.2068C18.0036 10.2063 18.0056 10.2061 18.0067 10.2061V12.2061C19.1335 12.2061 19.9998 11.2749 19.9998 10.1851H17.9998ZM18.0067 10.2061C18.0078 10.2061 18.0099 10.2063 18.0125 10.2068C18.015 10.2074 18.0172 10.2081 18.019 10.2089C18.0224 10.2104 18.0228 10.2113 18.0214 10.2099C18.02 10.2084 18.018 10.2058 18.0165 10.2021C18.0152 10.199 18.0137 10.1938 18.0137 10.1851H16.0137C16.0137 11.2749 16.88 12.2061 18.0067 12.2061V10.2061ZM18.0137 10.1851C18.0137 10.1764 18.0152 10.1712 18.0165 10.1681C18.018 10.1644 18.02 10.1618 18.0214 10.1603C18.0228 10.1589 18.0224 10.1598 18.019 10.1613C18.0172 10.1621 18.015 10.1629 18.0125 10.1634C18.0099 10.1639 18.0078 10.1641 18.0067 10.1641V8.16406C16.88 8.16406 16.0137 9.09529 16.0137 10.1851H18.0137ZM18.0067 10.1641C18.0056 10.1641 18.0036 10.1639 18.001 10.1634C17.9985 10.1629 17.9962 10.1621 17.9945 10.1613C17.9911 10.1598 17.9907 10.1589 17.9921 10.1603C17.9935 10.1618 17.9954 10.1644 17.9969 10.1681C17.9982 10.1712 17.9998 10.1764 17.9998 10.1851H19.9998C19.9998 9.09529 19.1335 8.16406 18.0067 8.16406V10.1641Z" fill="#4A4E54" mask="url(#path-6-inside-3_4006_1137)"/>
<mask id="path-8-inside-4_4006_1137" fill="white">
<ellipse cx="15.3642" cy="16.1578" rx="0.993061" ry="1.02104"/>
</mask>
<ellipse cx="15.3642" cy="16.1578" rx="0.993061" ry="1.02104" fill="#4A4E54"/>
<path d="M15.3572 16.1578C15.3572 16.1664 15.3557 16.1716 15.3544 16.1748C15.3528 16.1785 15.3509 16.1811 15.3495 16.1825C15.3481 16.184 15.3485 16.183 15.3519 16.1815C15.3537 16.1808 15.3559 16.18 15.3584 16.1795C15.361 16.1789 15.3631 16.1788 15.3642 16.1788V18.1788C16.4909 18.1788 17.3572 17.2476 17.3572 16.1578H15.3572ZM15.3642 16.1788C15.3653 16.1788 15.3673 16.1789 15.3699 16.1795C15.3724 16.18 15.3747 16.1808 15.3764 16.1815C15.3798 16.183 15.3802 16.184 15.3788 16.1825C15.3774 16.1811 15.3755 16.1785 15.3739 16.1748C15.3727 16.1716 15.3711 16.1664 15.3711 16.1578H13.3711C13.3711 17.2476 14.2374 18.1788 15.3642 18.1788V16.1788ZM15.3711 16.1578C15.3711 16.1491 15.3727 16.1439 15.3739 16.1408C15.3755 16.137 15.3774 16.1344 15.3788 16.133C15.3802 16.1316 15.3798 16.1325 15.3764 16.134C15.3747 16.1348 15.3724 16.1355 15.3699 16.136C15.3673 16.1366 15.3653 16.1367 15.3642 16.1367V14.1367C14.2374 14.1367 13.3711 15.0679 13.3711 16.1578H15.3711ZM15.3642 16.1367C15.3631 16.1367 15.361 16.1366 15.3584 16.136C15.3559 16.1355 15.3537 16.1348 15.3519 16.134C15.3485 16.1325 15.3481 16.1316 15.3495 16.133C15.3509 16.1344 15.3528 16.137 15.3544 16.1408C15.3557 16.1439 15.3572 16.1491 15.3572 16.1578H17.3572C17.3572 15.0679 16.4909 14.1367 15.3642 14.1367V16.1367Z" fill="#4A4E54" mask="url(#path-8-inside-4_4006_1137)"/>
<mask id="path-10-inside-5_4006_1137" fill="white">
<ellipse cx="9.64345" cy="18.9781" rx="0.993061" ry="1.02104"/>
</mask>
<ellipse cx="9.64345" cy="18.9781" rx="0.993061" ry="1.02104" fill="#4A4E54"/>
<path d="M9.63651 18.9781C9.63651 18.9868 9.63495 18.9919 9.63367 18.9951C9.63214 18.9988 9.63019 19.0014 9.62879 19.0028C9.6274 19.0043 9.62777 19.0033 9.63119 19.0018C9.63295 19.0011 9.63517 19.0003 9.6377 18.9998C9.64029 18.9993 9.64235 18.9991 9.64345 18.9991V20.9991C10.7702 20.9991 11.6365 20.0679 11.6365 18.9781H9.63651ZM9.64345 18.9991C9.64455 18.9991 9.64661 18.9993 9.6492 18.9998C9.65173 19.0003 9.65395 19.0011 9.65571 19.0018C9.65913 19.0033 9.6595 19.0043 9.65811 19.0028C9.65671 19.0014 9.65477 18.9988 9.65324 18.9951C9.65195 18.9919 9.65039 18.9868 9.65039 18.9781H7.65039C7.65039 20.0679 8.5167 20.9991 9.64345 20.9991V18.9991ZM9.65039 18.9781C9.65039 18.9694 9.65195 18.9642 9.65324 18.9611C9.65477 18.9574 9.65671 18.9547 9.65811 18.9533C9.6595 18.9519 9.65913 18.9528 9.65571 18.9543C9.65395 18.9551 9.65173 18.9558 9.6492 18.9564C9.64661 18.9569 9.64455 18.957 9.64345 18.957V16.957C8.5167 16.957 7.65039 17.8883 7.65039 18.9781H9.65039ZM9.64345 18.957C9.64235 18.957 9.64029 18.9569 9.6377 18.9564C9.63517 18.9558 9.63295 18.9551 9.63119 18.9543C9.62777 18.9528 9.6274 18.9519 9.62879 18.9533C9.63019 18.9547 9.63214 18.9574 9.63367 18.9611C9.63495 18.9642 9.63651 18.9694 9.63651 18.9781H11.6365C11.6365 17.8883 10.7702 16.957 9.64345 16.957V18.957Z" fill="#4A4E54" mask="url(#path-10-inside-5_4006_1137)"/>
<mask id="path-12-inside-6_4006_1137" fill="white">
<ellipse cx="3.38759" cy="16.1578" rx="0.993061" ry="1.02104"/>
</mask>
<ellipse cx="3.38759" cy="16.1578" rx="0.993061" ry="1.02104" fill="#4A4E54"/>
<path d="M3.38065 16.1578C3.38065 16.1664 3.37909 16.1716 3.37781 16.1748C3.37628 16.1785 3.37433 16.1811 3.37293 16.1825C3.37154 16.184 3.37191 16.183 3.37533 16.1815C3.37709 16.1808 3.37931 16.18 3.38184 16.1795C3.38443 16.1789 3.38649 16.1788 3.38759 16.1788V18.1788C4.51434 18.1788 5.38065 17.2476 5.38065 16.1578H3.38065ZM3.38759 16.1788C3.3887 16.1788 3.39075 16.1789 3.39334 16.1795C3.39587 16.18 3.39809 16.1808 3.39985 16.1815C3.40327 16.183 3.40364 16.184 3.40225 16.1825C3.40085 16.1811 3.39891 16.1785 3.39738 16.1748C3.39609 16.1716 3.39453 16.1664 3.39453 16.1578H1.39453C1.39453 17.2476 2.26084 18.1788 3.38759 18.1788V16.1788ZM3.39453 16.1578C3.39453 16.1491 3.39609 16.1439 3.39738 16.1408C3.39891 16.137 3.40085 16.1344 3.40225 16.133C3.40364 16.1316 3.40327 16.1325 3.39985 16.134C3.39809 16.1348 3.39587 16.1355 3.39334 16.136C3.39075 16.1366 3.3887 16.1367 3.38759 16.1367V14.1367C2.26084 14.1367 1.39453 15.0679 1.39453 16.1578H3.39453ZM3.38759 16.1367C3.38649 16.1367 3.38443 16.1366 3.38184 16.136C3.37931 16.1355 3.37709 16.1348 3.37533 16.134C3.37191 16.1325 3.37154 16.1316 3.37293 16.133C3.37433 16.1344 3.37628 16.137 3.37781 16.1408C3.37909 16.1439 3.38065 16.1491 3.38065 16.1578H5.38065C5.38065 15.0679 4.51434 14.1367 3.38759 14.1367V16.1367Z" fill="#4A4E54" mask="url(#path-12-inside-6_4006_1137)"/>
<mask id="path-14-inside-7_4006_1137" fill="white">
<ellipse cx="0.993061" cy="10.0035" rx="0.993061" ry="1.02104"/>
</mask>
<ellipse cx="0.993061" cy="10.0035" rx="0.993061" ry="1.02104" fill="#4A4E54"/>
<path d="M0.986121 10.0035C0.986121 10.0121 0.984562 10.0173 0.983276 10.0205C0.981745 10.0242 0.979802 10.0268 0.978399 10.0282C0.977008 10.0297 0.97738 10.0287 0.980802 10.0272C0.982558 10.0265 0.984783 10.0257 0.987309 10.0252C0.989901 10.0246 0.991957 10.0245 0.993061 10.0245V12.0245C2.11981 12.0245 2.98612 11.0933 2.98612 10.0035H0.986121ZM0.993061 10.0245C0.994164 10.0245 0.99622 10.0246 0.998812 10.0252C1.00134 10.0257 1.00356 10.0265 1.00532 10.0272C1.00874 10.0287 1.00911 10.0297 1.00772 10.0282C1.00632 10.0268 1.00438 10.0242 1.00285 10.0205C1.00156 10.0173 1 10.0121 1 10.0035H-1C-1 11.0933 -0.133688 12.0245 0.993061 12.0245V10.0245ZM1 10.0035C1 9.99478 1.00156 9.9896 1.00285 9.98647C1.00438 9.98275 1.00632 9.98014 1.00772 9.97869C1.00911 9.97726 1.00874 9.97821 1.00532 9.9797C1.00356 9.98046 1.00134 9.98121 0.998812 9.98174C0.99622 9.98229 0.994164 9.98242 0.993061 9.98242V7.98242C-0.133688 7.98242 -1 8.91365 -1 10.0035H1ZM0.993061 9.98242C0.991957 9.98242 0.989901 9.98229 0.987309 9.98174C0.984783 9.98121 0.982558 9.98046 0.980802 9.9797C0.97738 9.97821 0.977008 9.97726 0.978399 9.97869C0.979802 9.98014 0.981745 9.98275 0.983276 9.98647C0.984562 9.9896 0.986121 9.99478 0.986121 10.0035H2.98612C2.98612 8.91365 2.11981 7.98242 0.993061 7.98242V9.98242Z" fill="#4A4E54" mask="url(#path-14-inside-7_4006_1137)"/>
<mask id="path-16-inside-8_4006_1137" fill="white">
<ellipse cx="3.38759" cy="3.48198" rx="0.993061" ry="1.02104"/>
</mask>
<ellipse cx="3.38759" cy="3.48198" rx="0.993061" ry="1.02104" fill="#4A4E54"/>
<path d="M3.38065 3.48198C3.38065 3.49066 3.37909 3.49585 3.37781 3.49897C3.37628 3.5027 3.37433 3.50531 3.37293 3.50675C3.37154 3.50818 3.37191 3.50723 3.37533 3.50575C3.37709 3.50498 3.37931 3.50423 3.38184 3.5037C3.38443 3.50316 3.38649 3.50302 3.38759 3.50302V5.50302C4.51434 5.50302 5.38065 4.57179 5.38065 3.48198H3.38065ZM3.38759 3.50302C3.3887 3.50302 3.39075 3.50316 3.39334 3.5037C3.39587 3.50423 3.39809 3.50498 3.39985 3.50575C3.40327 3.50723 3.40364 3.50818 3.40225 3.50675C3.40085 3.50531 3.39891 3.5027 3.39738 3.49897C3.39609 3.49585 3.39453 3.49066 3.39453 3.48198H1.39453C1.39453 4.57179 2.26084 5.50302 3.38759 5.50302V3.50302ZM3.39453 3.48198C3.39453 3.47329 3.39609 3.46811 3.39738 3.46498C3.39891 3.46126 3.40085 3.45865 3.40225 3.45721C3.40364 3.45578 3.40327 3.45672 3.39985 3.45821C3.39809 3.45898 3.39587 3.45973 3.39334 3.46026C3.39075 3.4608 3.3887 3.46094 3.38759 3.46094V1.46094C2.26084 1.46094 1.39453 2.39216 1.39453 3.48198H3.39453ZM3.38759 3.46094C3.38649 3.46094 3.38443 3.4608 3.38184 3.46026C3.37931 3.45973 3.37709 3.45898 3.37533 3.45821C3.37191 3.45672 3.37154 3.45578 3.37293 3.45721C3.37433 3.45865 3.37628 3.46126 3.37781 3.46498C3.37909 3.46811 3.38065 3.47329 3.38065 3.48198H5.38065C5.38065 2.39216 4.51434 1.46094 3.38759 1.46094V3.46094Z" fill="#4A4E54" mask="url(#path-16-inside-8_4006_1137)"/>
</svg>
