<svg width="20" height="21" viewBox="0 0 20 21" fill="none" xmlns="http://www.w3.org/2000/svg">
<ellipse cx="9.69364" cy="10.7102" rx="6.12919" ry="6.12625" fill="#E7ECF3"/>
<mask id="path-2-inside-1_3946_5331" fill="white">
<ellipse cx="10.143" cy="1.52104" rx="0.993061" ry="1.02104"/>
</mask>
<ellipse cx="10.143" cy="1.52104" rx="0.993061" ry="1.02104" fill="#E7ECF3"/>
<path d="M10.136 1.52104C10.136 1.52973 10.1345 1.53491 10.1332 1.53804C10.1316 1.54176 10.1297 1.54437 10.1283 1.54581C10.1269 1.54724 10.1273 1.5463 10.1307 1.54481C10.1325 1.54404 10.1347 1.5433 10.1372 1.54276C10.1398 1.54222 10.1419 1.54208 10.143 1.54208V3.54208C11.2697 3.54208 12.136 2.61086 12.136 1.52104H10.136ZM10.143 1.54208C10.1441 1.54208 10.1461 1.54222 10.1487 1.54276C10.1512 1.5433 10.1535 1.54404 10.1552 1.54481C10.1586 1.5463 10.159 1.54724 10.1576 1.54581C10.1562 1.54437 10.1543 1.54176 10.1527 1.53804C10.1515 1.53491 10.1499 1.52973 10.1499 1.52104H8.1499C8.1499 2.61086 9.01621 3.54208 10.143 3.54208V1.54208ZM10.1499 1.52104C10.1499 1.51236 10.1515 1.50717 10.1527 1.50405C10.1543 1.50032 10.1562 1.49771 10.1576 1.49627C10.159 1.49484 10.1586 1.49579 10.1552 1.49728C10.1535 1.49804 10.1512 1.49879 10.1487 1.49932C10.1461 1.49986 10.1441 1.5 10.143 1.5V-0.5C9.01621 -0.5 8.1499 0.431227 8.1499 1.52104H10.1499ZM10.143 1.5C10.1419 1.5 10.1398 1.49986 10.1372 1.49932C10.1347 1.49879 10.1325 1.49804 10.1307 1.49728C10.1273 1.49579 10.1269 1.49484 10.1283 1.49627C10.1297 1.49771 10.1316 1.50032 10.1332 1.50405C10.1345 1.50717 10.136 1.51236 10.136 1.52104H12.136C12.136 0.431227 11.2697 -0.5 10.143 -0.5V1.5Z" fill="#E7ECF3" mask="url(#path-2-inside-1_3946_5331)"/>
<mask id="path-4-inside-2_3946_5331" fill="white">
<ellipse cx="16.1122" cy="4.34135" rx="0.993061" ry="1.02104"/>
</mask>
<ellipse cx="16.1122" cy="4.34135" rx="0.993061" ry="1.02104" fill="#E7ECF3"/>
<path d="M16.1053 4.34135C16.1053 4.35004 16.1037 4.35522 16.1024 4.35835C16.1009 4.36207 16.0989 4.36468 16.0975 4.36612C16.0961 4.36755 16.0965 4.36661 16.0999 4.36512C16.1017 4.36436 16.1039 4.36361 16.1064 4.36308C16.109 4.36253 16.1111 4.3624 16.1122 4.3624V6.3624C17.239 6.3624 18.1053 5.43117 18.1053 4.34135H16.1053ZM16.1122 4.3624C16.1133 4.3624 16.1154 4.36253 16.118 4.36308C16.1205 4.36361 16.1227 4.36436 16.1245 4.36512C16.1279 4.36661 16.1283 4.36755 16.1269 4.36612C16.1255 4.36468 16.1235 4.36207 16.122 4.35835C16.1207 4.35522 16.1191 4.35004 16.1191 4.34135H14.1191C14.1191 5.43117 14.9855 6.3624 16.1122 6.3624V4.3624ZM16.1191 4.34135C16.1191 4.33267 16.1207 4.32749 16.122 4.32436C16.1235 4.32064 16.1255 4.31803 16.1269 4.31658C16.1283 4.31515 16.1279 4.3161 16.1245 4.31759C16.1227 4.31835 16.1205 4.3191 16.118 4.31963C16.1154 4.32018 16.1133 4.32031 16.1122 4.32031V2.32031C14.9855 2.32031 14.1191 3.25154 14.1191 4.34135H16.1191ZM16.1122 4.32031C16.1111 4.32031 16.109 4.32018 16.1064 4.31963C16.1039 4.3191 16.1017 4.31835 16.0999 4.31759C16.0965 4.3161 16.0961 4.31515 16.0975 4.31658C16.0989 4.31803 16.1009 4.32064 16.1024 4.32436C16.1037 4.32749 16.1053 4.33267 16.1053 4.34135H18.1053C18.1053 3.25154 17.239 2.32031 16.1122 2.32031V4.32031Z" fill="#E7ECF3" mask="url(#path-4-inside-2_3946_5331)"/>
<mask id="path-6-inside-3_3946_5331" fill="white">
<ellipse cx="18.5067" cy="10.6851" rx="0.993061" ry="1.02104"/>
</mask>
<ellipse cx="18.5067" cy="10.6851" rx="0.993061" ry="1.02104" fill="#E7ECF3"/>
<path d="M18.4998 10.6851C18.4998 10.6938 18.4982 10.699 18.4969 10.7021C18.4954 10.7058 18.4935 10.7084 18.4921 10.7099C18.4907 10.7113 18.4911 10.7104 18.4945 10.7089C18.4962 10.7081 18.4985 10.7074 18.501 10.7068C18.5036 10.7063 18.5056 10.7061 18.5067 10.7061V12.7061C19.6335 12.7061 20.4998 11.7749 20.4998 10.6851H18.4998ZM18.5067 10.7061C18.5078 10.7061 18.5099 10.7063 18.5125 10.7068C18.515 10.7074 18.5172 10.7081 18.519 10.7089C18.5224 10.7104 18.5228 10.7113 18.5214 10.7099C18.52 10.7084 18.518 10.7058 18.5165 10.7021C18.5152 10.699 18.5137 10.6938 18.5137 10.6851H16.5137C16.5137 11.7749 17.38 12.7061 18.5067 12.7061V10.7061ZM18.5137 10.6851C18.5137 10.6764 18.5152 10.6712 18.5165 10.6681C18.518 10.6644 18.52 10.6618 18.5214 10.6603C18.5228 10.6589 18.5224 10.6598 18.519 10.6613C18.5172 10.6621 18.515 10.6629 18.5125 10.6634C18.5099 10.6639 18.5078 10.6641 18.5067 10.6641V8.66406C17.38 8.66406 16.5137 9.59529 16.5137 10.6851H18.5137ZM18.5067 10.6641C18.5056 10.6641 18.5036 10.6639 18.501 10.6634C18.4985 10.6629 18.4962 10.6621 18.4945 10.6613C18.4911 10.6598 18.4907 10.6589 18.4921 10.6603C18.4935 10.6618 18.4954 10.6644 18.4969 10.6681C18.4982 10.6712 18.4998 10.6764 18.4998 10.6851H20.4998C20.4998 9.59529 19.6335 8.66406 18.5067 8.66406V10.6641Z" fill="#E7ECF3" mask="url(#path-6-inside-3_3946_5331)"/>
<mask id="path-8-inside-4_3946_5331" fill="white">
<ellipse cx="15.8637" cy="16.6578" rx="0.993061" ry="1.02104"/>
</mask>
<ellipse cx="15.8637" cy="16.6578" rx="0.993061" ry="1.02104" fill="#E7ECF3"/>
<path d="M15.8567 16.6578C15.8567 16.6664 15.8552 16.6716 15.8539 16.6748C15.8524 16.6785 15.8504 16.6811 15.849 16.6825C15.8476 16.684 15.848 16.683 15.8514 16.6815C15.8532 16.6808 15.8554 16.68 15.8579 16.6795C15.8605 16.6789 15.8626 16.6788 15.8637 16.6788V18.6788C16.9904 18.6788 17.8567 17.7476 17.8567 16.6578H15.8567ZM15.8637 16.6788C15.8648 16.6788 15.8668 16.6789 15.8694 16.6795C15.8719 16.68 15.8742 16.6808 15.8759 16.6815C15.8793 16.683 15.8797 16.684 15.8783 16.6825C15.8769 16.6811 15.875 16.6785 15.8735 16.6748C15.8722 16.6716 15.8706 16.6664 15.8706 16.6578H13.8706C13.8706 17.7476 14.7369 18.6788 15.8637 18.6788V16.6788ZM15.8706 16.6578C15.8706 16.6491 15.8722 16.6439 15.8735 16.6408C15.875 16.637 15.8769 16.6344 15.8783 16.633C15.8797 16.6316 15.8793 16.6325 15.8759 16.634C15.8742 16.6348 15.8719 16.6355 15.8694 16.636C15.8668 16.6366 15.8648 16.6367 15.8637 16.6367V14.6367C14.7369 14.6367 13.8706 15.5679 13.8706 16.6578H15.8706ZM15.8637 16.6367C15.8626 16.6367 15.8605 16.6366 15.8579 16.636C15.8554 16.6355 15.8532 16.6348 15.8514 16.634C15.848 16.6325 15.8476 16.6316 15.849 16.633C15.8504 16.6344 15.8524 16.637 15.8539 16.6408C15.8552 16.6439 15.8567 16.6491 15.8567 16.6578H17.8567C17.8567 15.5679 16.9904 14.6367 15.8637 14.6367V16.6367Z" fill="#E7ECF3" mask="url(#path-8-inside-4_3946_5331)"/>
<mask id="path-10-inside-5_3946_5331" fill="white">
<ellipse cx="10.143" cy="19.4781" rx="0.993061" ry="1.02104"/>
</mask>
<ellipse cx="10.143" cy="19.4781" rx="0.993061" ry="1.02104" fill="#E7ECF3"/>
<path d="M10.136 19.4781C10.136 19.4868 10.1345 19.4919 10.1332 19.4951C10.1316 19.4988 10.1297 19.5014 10.1283 19.5028C10.1269 19.5043 10.1273 19.5033 10.1307 19.5018C10.1325 19.5011 10.1347 19.5003 10.1372 19.4998C10.1398 19.4993 10.1419 19.4991 10.143 19.4991V21.4991C11.2697 21.4991 12.136 20.5679 12.136 19.4781H10.136ZM10.143 19.4991C10.1441 19.4991 10.1461 19.4993 10.1487 19.4998C10.1512 19.5003 10.1535 19.5011 10.1552 19.5018C10.1586 19.5033 10.159 19.5043 10.1576 19.5028C10.1562 19.5014 10.1543 19.4988 10.1527 19.4951C10.1515 19.4919 10.1499 19.4868 10.1499 19.4781H8.1499C8.1499 20.5679 9.01621 21.4991 10.143 21.4991V19.4991ZM10.1499 19.4781C10.1499 19.4694 10.1515 19.4642 10.1527 19.4611C10.1543 19.4574 10.1562 19.4547 10.1576 19.4533C10.159 19.4519 10.1586 19.4528 10.1552 19.4543C10.1535 19.4551 10.1512 19.4558 10.1487 19.4564C10.1461 19.4569 10.1441 19.457 10.143 19.457V17.457C9.01621 17.457 8.1499 18.3883 8.1499 19.4781H10.1499ZM10.143 19.457C10.1419 19.457 10.1398 19.4569 10.1372 19.4564C10.1347 19.4558 10.1325 19.4551 10.1307 19.4543C10.1273 19.4528 10.1269 19.4519 10.1283 19.4533C10.1297 19.4547 10.1316 19.4574 10.1332 19.4611C10.1345 19.4642 10.136 19.4694 10.136 19.4781H12.136C12.136 18.3883 11.2697 17.457 10.143 17.457V19.457Z" fill="#E7ECF3" mask="url(#path-10-inside-5_3946_5331)"/>
<mask id="path-12-inside-6_3946_5331" fill="white">
<ellipse cx="3.88808" cy="16.6578" rx="0.993061" ry="1.02104"/>
</mask>
<ellipse cx="3.88808" cy="16.6578" rx="0.993061" ry="1.02104" fill="#E7ECF3"/>
<path d="M3.88114 16.6578C3.88114 16.6664 3.87958 16.6716 3.8783 16.6748C3.87676 16.6785 3.87482 16.6811 3.87342 16.6825C3.87203 16.684 3.8724 16.683 3.87582 16.6815C3.87758 16.6808 3.8798 16.68 3.88233 16.6795C3.88492 16.6789 3.88698 16.6788 3.88808 16.6788V18.6788C5.01483 18.6788 5.88114 17.7476 5.88114 16.6578H3.88114ZM3.88808 16.6788C3.88918 16.6788 3.89124 16.6789 3.89383 16.6795C3.89636 16.68 3.89858 16.6808 3.90034 16.6815C3.90376 16.683 3.90413 16.684 3.90274 16.6825C3.90134 16.6811 3.8994 16.6785 3.89786 16.6748C3.89658 16.6716 3.89502 16.6664 3.89502 16.6578H1.89502C1.89502 17.7476 2.76133 18.6788 3.88808 18.6788V16.6788ZM3.89502 16.6578C3.89502 16.6491 3.89658 16.6439 3.89786 16.6408C3.8994 16.637 3.90134 16.6344 3.90274 16.633C3.90413 16.6316 3.90376 16.6325 3.90034 16.634C3.89858 16.6348 3.89636 16.6355 3.89383 16.636C3.89124 16.6366 3.88918 16.6367 3.88808 16.6367V14.6367C2.76133 14.6367 1.89502 15.5679 1.89502 16.6578H3.89502ZM3.88808 16.6367C3.88698 16.6367 3.88492 16.6366 3.88233 16.636C3.8798 16.6355 3.87758 16.6348 3.87582 16.634C3.8724 16.6325 3.87203 16.6316 3.87342 16.633C3.87482 16.6344 3.87676 16.637 3.8783 16.6408C3.87958 16.6439 3.88114 16.6491 3.88114 16.6578H5.88114C5.88114 15.5679 5.01483 14.6367 3.88808 14.6367V16.6367Z" fill="#E7ECF3" mask="url(#path-12-inside-6_3946_5331)"/>
<mask id="path-14-inside-7_3946_5331" fill="white">
<ellipse cx="1.49306" cy="10.5035" rx="0.993061" ry="1.02104"/>
</mask>
<ellipse cx="1.49306" cy="10.5035" rx="0.993061" ry="1.02104" fill="#E7ECF3"/>
<path d="M1.48612 10.5035C1.48612 10.5121 1.48456 10.5173 1.48328 10.5205C1.48174 10.5242 1.4798 10.5268 1.4784 10.5282C1.47701 10.5297 1.47738 10.5287 1.4808 10.5272C1.48256 10.5265 1.48478 10.5257 1.48731 10.5252C1.4899 10.5246 1.49196 10.5245 1.49306 10.5245V12.5245C2.61981 12.5245 3.48612 11.5933 3.48612 10.5035H1.48612ZM1.49306 10.5245C1.49416 10.5245 1.49622 10.5246 1.49881 10.5252C1.50134 10.5257 1.50356 10.5265 1.50532 10.5272C1.50874 10.5287 1.50911 10.5297 1.50772 10.5282C1.50632 10.5268 1.50438 10.5242 1.50285 10.5205C1.50156 10.5173 1.5 10.5121 1.5 10.5035H-0.5C-0.5 11.5933 0.366312 12.5245 1.49306 12.5245V10.5245ZM1.5 10.5035C1.5 10.4948 1.50156 10.4896 1.50285 10.4865C1.50438 10.4827 1.50632 10.4801 1.50772 10.4787C1.50911 10.4773 1.50874 10.4782 1.50532 10.4797C1.50356 10.4805 1.50134 10.4812 1.49881 10.4817C1.49622 10.4823 1.49416 10.4824 1.49306 10.4824V8.48242C0.366312 8.48242 -0.5 9.41365 -0.5 10.5035H1.5ZM1.49306 10.4824C1.49196 10.4824 1.4899 10.4823 1.48731 10.4817C1.48478 10.4812 1.48256 10.4805 1.4808 10.4797C1.47738 10.4782 1.47701 10.4773 1.4784 10.4787C1.4798 10.4801 1.48174 10.4827 1.48328 10.4865C1.48456 10.4896 1.48612 10.4948 1.48612 10.5035H3.48612C3.48612 9.41365 2.61981 8.48242 1.49306 8.48242V10.4824Z" fill="#E7ECF3" mask="url(#path-14-inside-7_3946_5331)"/>
<mask id="path-16-inside-8_3946_5331" fill="white">
<ellipse cx="3.88808" cy="3.98198" rx="0.993061" ry="1.02104"/>
</mask>
<ellipse cx="3.88808" cy="3.98198" rx="0.993061" ry="1.02104" fill="#E7ECF3"/>
<path d="M3.88114 3.98198C3.88114 3.99066 3.87958 3.99585 3.8783 3.99897C3.87676 4.0027 3.87482 4.00531 3.87342 4.00675C3.87203 4.00818 3.8724 4.00723 3.87582 4.00575C3.87758 4.00498 3.8798 4.00423 3.88233 4.0037C3.88492 4.00316 3.88698 4.00302 3.88808 4.00302V6.00302C5.01483 6.00302 5.88114 5.07179 5.88114 3.98198H3.88114ZM3.88808 4.00302C3.88918 4.00302 3.89124 4.00316 3.89383 4.0037C3.89636 4.00423 3.89858 4.00498 3.90034 4.00575C3.90376 4.00723 3.90413 4.00818 3.90274 4.00675C3.90134 4.00531 3.8994 4.0027 3.89786 3.99897C3.89658 3.99585 3.89502 3.99066 3.89502 3.98198H1.89502C1.89502 5.07179 2.76133 6.00302 3.88808 6.00302V4.00302ZM3.89502 3.98198C3.89502 3.97329 3.89658 3.96811 3.89786 3.96498C3.8994 3.96126 3.90134 3.95865 3.90274 3.95721C3.90413 3.95578 3.90376 3.95672 3.90034 3.95821C3.89858 3.95898 3.89636 3.95973 3.89383 3.96026C3.89124 3.9608 3.88918 3.96094 3.88808 3.96094V1.96094C2.76133 1.96094 1.89502 2.89216 1.89502 3.98198H3.89502ZM3.88808 3.96094C3.88698 3.96094 3.88492 3.9608 3.88233 3.96026C3.8798 3.95973 3.87758 3.95898 3.87582 3.95821C3.8724 3.95672 3.87203 3.95578 3.87342 3.95721C3.87482 3.95865 3.87676 3.96126 3.8783 3.96498C3.87958 3.96811 3.88114 3.97329 3.88114 3.98198H5.88114C5.88114 2.89216 5.01483 1.96094 3.88808 1.96094V3.96094Z" fill="#E7ECF3" mask="url(#path-16-inside-8_3946_5331)"/>
</svg>
