<svg width="16" height="12" viewBox="0 0 16 12" fill="none" xmlns="http://www.w3.org/2000/svg">
<path d="M3.99352 8H6.38964C6.60147 8 6.80462 7.91571 6.95441 7.76569C7.10419 7.61566 7.18834 7.41217 7.18834 7.2C7.18834 6.98783 7.10419 6.78434 6.95441 6.63432C6.80462 6.48429 6.60147 6.4 6.38964 6.4H3.99352C3.78169 6.4 3.57854 6.48429 3.42875 6.63432C3.27897 6.78434 3.19482 6.98783 3.19482 7.2C3.19482 7.41217 3.27897 7.61566 3.42875 7.76569C3.57854 7.91571 3.78169 8 3.99352 8ZM13.578 0H2.39611C1.76063 0 1.15116 0.252856 0.701806 0.702944C0.252447 1.15303 0 1.76348 0 2.4V9.6C0 10.2365 0.252447 10.847 0.701806 11.2971C1.15116 11.7471 1.76063 12 2.39611 12H13.578C14.2135 12 14.8229 11.7471 15.2723 11.2971C15.7216 10.847 15.9741 10.2365 15.9741 9.6V2.4C15.9741 1.76348 15.7216 1.15303 15.2723 0.702944C14.8229 0.252856 14.2135 0 13.578 0ZM14.3767 9.6C14.3767 9.81217 14.2925 10.0157 14.1427 10.1657C13.993 10.3157 13.7898 10.4 13.578 10.4H2.39611C2.18428 10.4 1.98113 10.3157 1.83134 10.1657C1.68156 10.0157 1.59741 9.81217 1.59741 9.6V4.8H14.3767V9.6ZM14.3767 3.2H1.59741V2.4C1.59741 2.18783 1.68156 1.98434 1.83134 1.83431C1.98113 1.68429 2.18428 1.6 2.39611 1.6H13.578C13.7898 1.6 13.993 1.68429 14.1427 1.83431C14.2925 1.98434 14.3767 2.18783 14.3767 2.4V3.2Z" fill="#84878B"/>
</svg>
